# xmcd
#
# Track frame offsets:
# 150
# 11925
# 25575
# 39825
# 55950
# 71287
# 95400
# 111975
# 126175
# 139050
#
# Disc length: 2108 seconds
#
#
# Revision: 0
# Processed by: cddbd v1.5.2PL0 Copyright (c) Steve Scherf et al.
# Submitted via: Nero 7, 11, 10, 0 
#
DISCID=81083a0a
DTITLE=Whose Muddy Shoes - Gasoline
DYEAR=1993
DGENRE=Blues
TTITLE0=Honey Bee
TTITLE1=Find A Fool
TTITLE2=Gasoline
TTITLE3=Whiskeyhead
TTITLE4=Don't Bother Lookin'
TTITLE5=Fool Me Twice
TTITLE6=Meanest Girl In town
TTITLE7=Bad Luck Blues
TTITLE8=It Ain't Right
TTITLE9=Mean and Evil
EXTD=
EXTT0=Honey Bee
EXTT1=Find A Fool
EXTT2=Gasoline
EXTT3=Whiskeyhead
EXTT4=Don't Bother Lookin'
EXTT5=Fool Me Twice
EXTT6=Meanest Girl In town
EXTT7=Bad Luck Blues
EXTT8=It Ain't Right
EXTT9=Mean and Evil
PLAYORDER=
